<svg xmlns="http://www.w3.org/2000/svg" viewBox="0 0 640 360" font-family="-apple-system,PingFang SC,sans-serif"><line x1="48" y1="28.0" x2="624" y2="28.0" stroke="#e3e8f0" stroke-width="1"/><text x="42" y="32.0" fill="#8a94a6" font-size="11" text-anchor="end">0.4</text><line x1="48" y1="101.0" x2="624" y2="101.0" stroke="#e3e8f0" stroke-width="1"/><text x="42" y="105.0" fill="#8a94a6" font-size="11" text-anchor="end">0.4</text><line x1="48" y1="174.0" x2="624" y2="174.0" stroke="#e3e8f0" stroke-width="1"/><text x="42" y="178.0" fill="#8a94a6" font-size="11" text-anchor="end">0.4</text><line x1="48" y1="247.0" x2="624" y2="247.0" stroke="#e3e8f0" stroke-width="1"/><text x="42" y="251.0" fill="#8a94a6" font-size="11" text-anchor="end">0.4</text><line x1="48" y1="320.0" x2="624" y2="320.0" stroke="#e3e8f0" stroke-width="1"/><text x="42" y="324.0" fill="#8a94a6" font-size="11" text-anchor="end">0.4</text><path d="M48.0,295.7 L192.0,115.4 L336.0,52.3 L480.0,97.4 L624.0,178.5" fill="none" stroke="#3a5fcd" stroke-width="2.5"/><circle cx="48.0" cy="295.7" r="3" fill="#3a5fcd"/><circle cx="192.0" cy="115.4" r="3" fill="#3a5fcd"/><circle cx="336.0" cy="52.3" r="3" fill="#3a5fcd"/><circle cx="480.0" cy="97.4" r="3" fill="#3a5fcd"/><circle cx="624.0" cy="178.5" r="3" fill="#3a5fcd"/><text x="48.0" y="344.0" fill="#3f3f3f" font-size="12" text-anchor="middle">2</text><text x="192.0" y="344.0" fill="#3f3f3f" font-size="12" text-anchor="middle">4</text><text x="336.0" y="344.0" fill="#3f3f3f" font-size="12" text-anchor="middle">8</text><text x="480.0" y="344.0" fill="#3f3f3f" font-size="12" text-anchor="middle">16</text><text x="624.0" y="344.0" fill="#3f3f3f" font-size="12" text-anchor="middle">32</text><text x="48" y="16" fill="#1a1a1a" font-size="13" font-weight="700">记忆写入频率 vs 长程NDCG</text></svg>